<svg xmlns="http://www.w3.org/2000/svg" xmlns:xlink="http://www.w3.org/1999/xlink" width="331" zoomAndPan="magnify" viewBox="0 0 248.25 92.249997" height="123" preserveAspectRatio="xMidYMid meet" version="1.0"><defs><g/><clipPath id="e2987fa244"><rect x="0" width="225" y="0" height="67"/></clipPath></defs><g transform="matrix(1, 0, 0, 1, 12, 12)"><g clip-path="url(#e2987fa244)"><g fill="#38ca8b" fill-opacity="1"><g transform="translate(0.0875031, 52.35511)"><g><path d="M 16.03125 0.6875 C 11.800781 0.6875 8.382812 -0.597656 5.78125 -3.171875 C 3.1875 -5.753906 1.890625 -9.335938 1.890625 -13.921875 C 1.890625 -18.078125 3.195312 -21.539062 5.8125 -24.3125 C 8.425781 -27.082031 11.703125 -28.46875 15.640625 -28.46875 C 19.078125 -28.46875 22.003906 -27.484375 24.421875 -25.515625 C 26.847656 -23.546875 28.390625 -20.632812 29.046875 -16.78125 L 23.25 -15.234375 C 22.21875 -20.691406 19.738281 -23.421875 15.8125 -23.421875 C 13.476562 -23.421875 11.648438 -22.570312 10.328125 -20.875 C 9.015625 -19.175781 8.359375 -16.859375 8.359375 -13.921875 C 8.359375 -10.984375 9.046875 -8.65625 10.421875 -6.9375 C 11.796875 -5.21875 13.6875 -4.359375 16.09375 -4.359375 C 19.457031 -4.359375 22.015625 -6.4375 23.765625 -10.59375 L 28.875 -7.90625 C 26.039062 -2.175781 21.757812 0.6875 16.03125 0.6875 Z M 16.03125 0.6875 "/></g></g></g><g fill="#38ca8b" fill-opacity="1"><g transform="translate(30.504387, 52.35511)"><g><path d="M 26.8125 -3.4375 C 24.0625 -0.6875 20.601562 0.6875 16.4375 0.6875 C 12.28125 0.6875 8.816406 -0.6875 6.046875 -3.4375 C 3.273438 -6.1875 1.890625 -9.679688 1.890625 -13.921875 C 1.890625 -18.160156 3.273438 -21.644531 6.046875 -24.375 C 8.816406 -27.101562 12.28125 -28.46875 16.4375 -28.46875 C 20.601562 -28.46875 24.0625 -27.101562 26.8125 -24.375 C 29.5625 -21.644531 30.9375 -18.160156 30.9375 -13.921875 C 30.9375 -9.679688 29.5625 -6.1875 26.8125 -3.4375 Z M 10.5625 -6.9375 C 12.039062 -5.21875 14 -4.359375 16.4375 -4.359375 C 18.882812 -4.359375 20.84375 -5.21875 22.3125 -6.9375 C 23.78125 -8.65625 24.515625 -10.984375 24.515625 -13.921875 C 24.515625 -16.816406 23.769531 -19.125 22.28125 -20.84375 C 20.789062 -22.5625 18.84375 -23.421875 16.4375 -23.421875 C 14 -23.421875 12.039062 -22.570312 10.5625 -20.875 C 9.09375 -19.175781 8.359375 -16.859375 8.359375 -13.921875 C 8.359375 -10.984375 9.09375 -8.65625 10.5625 -6.9375 Z M 10.5625 -6.9375 "/></g></g></g><g fill="#38ca8b" fill-opacity="1"><g transform="translate(63.384413, 52.35511)"><g><path d="M 19.59375 0.6875 C 15.195312 0.6875 11.96875 -1.03125 9.90625 -4.46875 L 9.90625 0 L 3.890625 0 L 3.890625 -39.8125 L 10.078125 -39.8125 L 10.078125 -23.484375 C 12.222656 -26.804688 15.410156 -28.46875 19.640625 -28.46875 C 23.304688 -28.46875 26.367188 -27.070312 28.828125 -24.28125 C 31.296875 -21.5 32.53125 -18.046875 32.53125 -13.921875 C 32.53125 -9.796875 31.296875 -6.328125 28.828125 -3.515625 C 26.367188 -0.710938 23.289062 0.6875 19.59375 0.6875 Z M 18.15625 -4.359375 C 20.601562 -4.359375 22.53125 -5.21875 23.9375 -6.9375 C 25.351562 -8.65625 26.0625 -10.984375 26.0625 -13.921875 C 26.0625 -16.859375 25.351562 -19.175781 23.9375 -20.875 C 22.53125 -22.570312 20.601562 -23.421875 18.15625 -23.421875 C 15.90625 -23.421875 13.992188 -22.503906 12.421875 -20.671875 C 10.859375 -18.835938 10.078125 -16.585938 10.078125 -13.921875 C 10.078125 -11.210938 10.859375 -8.941406 12.421875 -7.109375 C 13.992188 -5.273438 15.90625 -4.359375 18.15625 -4.359375 Z M 18.15625 -4.359375 "/></g></g></g><g fill="#38ca8b" fill-opacity="1"><g transform="translate(97.811053, 52.35511)"><g><path d="M 10.078125 0 L 3.890625 0 L 3.890625 -27.78125 L 9.90625 -27.78125 L 9.90625 -22.96875 C 11.4375 -26.476562 14.070312 -28.234375 17.8125 -28.234375 C 20.03125 -28.234375 21.863281 -27.507812 23.3125 -26.0625 C 24.757812 -24.613281 25.484375 -22.664062 25.484375 -20.21875 C 25.484375 -18.84375 25.238281 -17.410156 24.75 -15.921875 L 19.078125 -16.5 C 19.222656 -17.644531 19.296875 -18.40625 19.296875 -18.78125 C 19.296875 -21.644531 18.113281 -23.078125 15.75 -23.078125 C 14.144531 -23.078125 12.796875 -22.226562 11.703125 -20.53125 C 10.617188 -18.832031 10.078125 -16.59375 10.078125 -13.8125 Z M 10.078125 0 "/></g></g></g><g fill="#38ca8b" fill-opacity="1"><g transform="translate(123.588055, 52.35511)"><g><path d="M 12.828125 0.6875 C 9.660156 0.6875 7.09375 -0.101562 5.125 -1.6875 C 3.15625 -3.269531 2.171875 -5.398438 2.171875 -8.078125 C 2.171875 -10.523438 3.191406 -12.597656 5.234375 -14.296875 C 7.285156 -15.992188 9.859375 -16.84375 12.953125 -16.84375 C 16.117188 -16.84375 18.789062 -15.832031 20.96875 -13.8125 L 20.96875 -17.1875 C 20.96875 -19.164062 20.457031 -20.695312 19.4375 -21.78125 C 18.425781 -22.875 16.988281 -23.421875 15.125 -23.421875 C 11.34375 -23.421875 8.992188 -21.492188 8.078125 -17.640625 L 2.40625 -18.84375 C 3.164062 -21.820312 4.671875 -24.171875 6.921875 -25.890625 C 9.179688 -27.609375 11.988281 -28.46875 15.34375 -28.46875 C 19.007812 -28.46875 21.898438 -27.503906 24.015625 -25.578125 C 26.140625 -23.648438 27.203125 -20.832031 27.203125 -17.125 L 27.203125 0 L 21.1875 0 L 21.1875 -3.5 C 19.164062 -0.707031 16.378906 0.6875 12.828125 0.6875 Z M 13.984375 -3.890625 C 16.722656 -3.890625 19.050781 -5.265625 20.96875 -8.015625 L 20.96875 -8.875 C 19.050781 -11.164062 16.722656 -12.3125 13.984375 -12.3125 C 12.378906 -12.3125 11.078125 -11.921875 10.078125 -11.140625 C 9.085938 -10.359375 8.59375 -9.359375 8.59375 -8.140625 C 8.59375 -6.878906 9.078125 -5.851562 10.046875 -5.0625 C 11.023438 -4.28125 12.335938 -3.890625 13.984375 -3.890625 Z M 13.984375 -3.890625 "/></g></g></g><g fill="#38ca8b" fill-opacity="1"><g transform="translate(154.405921, 52.35511)"><g><path d="M 10.078125 12.03125 L 3.890625 12.03125 L 3.890625 -27.78125 L 9.90625 -27.78125 L 9.90625 -23.375 C 12.007812 -26.769531 15.238281 -28.46875 19.59375 -28.46875 C 23.257812 -28.46875 26.332031 -27.070312 28.8125 -24.28125 C 31.289062 -21.5 32.53125 -18.046875 32.53125 -13.921875 C 32.53125 -9.753906 31.296875 -6.273438 28.828125 -3.484375 C 26.367188 -0.703125 23.304688 0.6875 19.640625 0.6875 C 15.367188 0.6875 12.179688 -0.9375 10.078125 -4.1875 Z M 18.15625 -4.359375 C 20.601562 -4.359375 22.53125 -5.21875 23.9375 -6.9375 C 25.351562 -8.65625 26.0625 -10.984375 26.0625 -13.921875 C 26.0625 -16.859375 25.351562 -19.175781 23.9375 -20.875 C 22.53125 -22.570312 20.601562 -23.421875 18.15625 -23.421875 C 15.90625 -23.421875 13.992188 -22.503906 12.421875 -20.671875 C 10.859375 -18.835938 10.078125 -16.585938 10.078125 -13.921875 C 10.078125 -11.210938 10.859375 -8.941406 12.421875 -7.109375 C 13.992188 -5.273438 15.90625 -4.359375 18.15625 -4.359375 Z M 18.15625 -4.359375 "/></g></g></g><g fill="#38ca8b" fill-opacity="1"><g transform="translate(188.832561, 52.35511)"><g><path d="M 10.078125 12.03125 L 3.890625 12.03125 L 3.890625 -27.78125 L 9.90625 -27.78125 L 9.90625 -23.375 C 12.007812 -26.769531 15.238281 -28.46875 19.59375 -28.46875 C 23.257812 -28.46875 26.332031 -27.070312 28.8125 -24.28125 C 31.289062 -21.5 32.53125 -18.046875 32.53125 -13.921875 C 32.53125 -9.753906 31.296875 -6.273438 28.828125 -3.484375 C 26.367188 -0.703125 23.304688 0.6875 19.640625 0.6875 C 15.367188 0.6875 12.179688 -0.9375 10.078125 -4.1875 Z M 18.15625 -4.359375 C 20.601562 -4.359375 22.53125 -5.21875 23.9375 -6.9375 C 25.351562 -8.65625 26.0625 -10.984375 26.0625 -13.921875 C 26.0625 -16.859375 25.351562 -19.175781 23.9375 -20.875 C 22.53125 -22.570312 20.601562 -23.421875 18.15625 -23.421875 C 15.90625 -23.421875 13.992188 -22.503906 12.421875 -20.671875 C 10.859375 -18.835938 10.078125 -16.585938 10.078125 -13.921875 C 10.078125 -11.210938 10.859375 -8.941406 12.421875 -7.109375 C 13.992188 -5.273438 15.90625 -4.359375 18.15625 -4.359375 Z M 18.15625 -4.359375 "/></g></g></g></g></g></svg>